<?xml version="1.0" encoding="UTF-8" standalone="no"?>
<!-- Created with Inkscape (http://www.inkscape.org/) -->

<svg
   version="1.1"
   id="svg1"
   width="1104.0944"
   height="340.7699"
   viewBox="0 0 1104.0944 340.7699"
   xmlns="http://www.w3.org/2000/svg"
   xmlns:svg="http://www.w3.org/2000/svg">
  <defs
     id="defs1" />
  <g
     id="g1"
     transform="translate(1487.2728,-222.81157)">
    <path
       style="fill:#ffffff"
       d="m -818.37797,562.0434 c -5.66672,-2.02247 -8.29338,-4.0759 -10.1096,-7.90331 -2.75751,-5.81102 -2.32437,-6.67376 3.35052,-6.67376 3.48558,0 5,0.40153 5,1.32569 0,2.05962 4.16337,5.38725 7.66632,6.12742 3.97712,0.84036 10.9326,-0.96553 11.73086,-3.04575 1.14373,-2.98052 0.59754,-6.33982 -1.18599,-7.29434 -0.98385,-0.52653 -5.46957,-1.87343 -9.96827,-2.99309 -4.4987,-1.11966 -9.53612,-2.73731 -11.19426,-3.59477 -3.81919,-1.97498 -6.04866,-6.25336 -6.04866,-11.60747 0,-9.31286 8.05961,-15.46526 19.32014,-14.74825 10.22558,0.65112 16.21484,4.95123 18.21878,13.08056 0.67028,2.7191 0.62331,2.74957 -4.18051,2.71148 -4.34345,-0.0344 -5.0704,-0.373 -6.85841,-3.19421 -2.46224,-3.88503 -7.20301,-5.35042 -12.09078,-3.73731 -6.03856,1.9929 -6.98534,7.71396 -1.62597,9.82513 1.49421,0.5886 6.21875,1.94474 10.49898,3.01365 12.97417,3.24007 16.25899,6.59131 15.49467,15.80797 -0.40747,4.9136 -0.93426,6.07939 -4.02841,8.91497 -5.70796,5.23096 -15.80126,6.90777 -23.98941,3.98539 z m 53.55032,-1.11018 c -8.34354,-4.15776 -12.29265,-11.87338 -12.30382,-24.03875 -0.0148,-16.14009 8.81151,-25.42814 24.1641,-25.42814 10.78836,0 19.26848,6.6981 21.90064,17.29841 1.62072,6.52703 0.72742,17.22621 -1.86157,22.29627 -5.83925,11.43508 -19.98064,15.81156 -31.89935,9.87221 z m 17.16811,-7.6386 c 8.48499,-3.86602 9.9611,-22.87958 2.3297,-30.00839 -2.5056,-2.34057 -3.89782,-2.8199 -8.19046,-2.8199 -6.29529,0 -9.1756,1.81696 -11.703,7.3825 -3.8366,8.44849 -1.55119,21.03811 4.48752,24.72045 3.51257,2.14193 9.26665,2.46111 13.07624,0.72534 z m 91.87649,9.13962 c -4.53244,-1.3992 -8.9838,-5.97101 -10.24832,-10.52561 -0.60234,-2.16954 -1.09703,-11.92406 -1.1001,-21.6923 l -0.006,-17.75 h 5 5 l 0.006,16.25 c 0.008,22.96874 1.08519,25.75 9.97413,25.75 3.03164,0 4.75574,-0.64454 6.56574,-2.45455 2.42967,-2.43008 2.45413,-2.63987 2.45413,-21.05226 v -18.59771 l 5.25,0.30226 5.25,0.30226 0.27745,14.87566 c 0.4153,22.26605 -1.27109,28.65587 -8.7129,33.01365 -3.73412,2.18663 -14.85569,3.07735 -19.71055,1.5786 z m 131.27077,-0.43702 c -5.20715,-1.85608 -10.21739,-6.90794 -12.3624,-12.46507 -2.12445,-5.50388 -2.32682,-17.81686 -0.38462,-23.40159 3.06832,-8.82284 11.41658,-14.60778 21.12225,-14.63669 11.1683,-0.0333 17.5315,3.62336 21.6331,12.43159 3.4885,7.4915 3.3794,20.11628 -0.2365,27.37249 -4.1157,8.25908 -10.8918,12.20971 -20.79582,12.12449 -2.80543,-0.0241 -6.84464,-0.66549 -8.97601,-1.42522 z m 17.26923,-10.09517 c 3.3939,-2.85579 5.0948,-7.67517 5.0948,-14.43572 0,-10.87596 -4.5444,-17 -12.61519,-17 -5.79928,0 -9.72982,2.09917 -11.62018,6.20595 -4.10454,8.91707 -2.86206,19.73547 2.84177,24.74349 4.68942,4.11737 11.7337,4.32754 16.2988,0.48628 z m 95.2748,10.13927 c -6.531,-2.12907 -11.1688,-7.33009 -11.1688,-12.52533 0,-1.78039 0.6281,-2.04966 4.7808,-2.04966 4.3686,0 4.8761,0.25265 5.8871,2.93106 2.583,6.84314 19.3321,5.71759 19.3321,-1.29913 0,-3.56656 -2.6824,-5.16132 -12.8297,-7.62758 -10.7419,-2.61079 -14.6233,-5.25913 -16.1799,-11.03989 -2.7963,-10.38473 5.3285,-18.92054 18.0096,-18.92054 9.6423,0 17.5149,5.19178 18.6704,12.31268 l 0.5913,3.6434 h -4.6556 c -4.0694,0 -4.7776,-0.32087 -5.6245,-2.54837 -2.7205,-7.15538 -17.9816,-6.238 -17.9816,1.08091 0,3.24706 1.515,4.08813 12.5099,6.94482 11.3331,2.94459 13.7939,4.2756 16.0807,8.69777 3.3299,6.43943 0.3608,15.1814 -6.526,19.21418 -4.208,2.46411 -15.0814,3.08109 -20.8958,1.18568 z m -303.1688,-24.57499 v -25 h 5 5 v 20.5 20.5 h 12 12 v 4.5 4.5 h -17 -17 z m 115,4.5 v -20.5 h -7.5 -7.5 v -4.5 -4.5 h 20 20 v 4.5 4.5 h -7.5 -7.5 v 20.5 20.5 h -5 -5 z m 37,-4.5 v -25 h 5 5 v 25 25 h -5 -5 z m 86,-0.0523 v -25.05226 l 5.25,0.30226 5.25,0.30226 9.75,16.99485 9.75,16.99485 v -17.24481 -17.24485 h 5 5 v 25.05226 25.05226 l -5.2484,-0.30226 -5.2483,-0.30226 -10.0017,-17.26331 -10.0016,-17.26332 -0.2731,17.51332 -0.273,17.51331 h -4.477 -4.4769 z m -878.49995,17.9843 c -15.9429,-2.14612 -37.1378,-8.66977 -51.0446,-15.71122 -17.9165,-9.07165 -38.6054,-26.54226 -49.7324,-41.99627 -15.3481,-21.31671 -25.3137,-47.77457 -29.2757,-77.72451 -1.8695,-14.13307 -2.1446,-48.47874 -0.4964,-62 2.7634,-22.67042 8.3181,-42.39247 16.5206,-58.6567 19.3605,-38.38833 50.7939,-62.62546 93.6999,-72.2485 34.3176,-7.69681 70.5181,-4.8079 95.3286,7.60751 27.257,13.63971 43.0362,34.57002 50.7352,67.29769 2.0341,8.64681 2.1322,11.87523 2.4999,82.26644 l 0.3827,73.26645 -26.7469,-0.26645 -26.7469,-0.26644 -1.3923,-5.49689 c -0.7657,-3.0233 -1.5677,-5.67239 -1.7822,-5.88688 -0.2145,-0.21448 -3.2159,1.44899 -6.6697,3.69662 -7.9935,5.20176 -13.8686,7.78293 -22.9983,10.10417 -20.8759,5.30768 -42.9988,2.67321 -59.5905,-7.09623 -7.9424,-4.67661 -20.0318,-17.03391 -23.9756,-24.50684 -6.7023,-12.70009 -8.9735,-30.23185 -5.7099,-44.07422 7.366,-31.24186 40.3794,-50.80095 101.4699,-60.11676 6.6421,-1.01286 12.3403,-2.10535 12.6627,-2.42775 1.2782,-1.27823 -1.9554,-14.59576 -5.1751,-21.31376 -5.739,-11.97435 -17.9672,-21.46578 -31.2623,-24.26552 -7.7694,-1.63613 -23.5146,-1.37814 -31.1369,0.51018 -28.3194,7.0158 -50.0187,30.03247 -59.6513,63.27261 -7.3278,25.28667 -8.3059,60.53526 -2.4585,88.60148 8.0761,38.76396 34.801,67.79615 69.0376,74.99803 8.2718,1.74002 27.5052,1.96951 37.0084,0.44157 9.138,-1.46923 25.1704,-7.00086 35.8805,-12.37983 l 9.092,-4.56628 14.0732,21.0748 c 7.7402,11.59114 13.9299,21.50453 13.7548,22.02976 -0.6081,1.8245 -26.3106,13.15951 -40.7634,17.97703 -7.9954,2.6651 -18.5871,5.58313 -23.5371,6.4845 -10.6435,1.93812 -41.7066,2.75783 -52,1.37221 z m 53.5,-18.28082 c 11.002,-2.58648 35.7146,-11.19185 37.8353,-13.17496 0.1844,-0.17247 -1.9238,-3.66144 -4.6849,-7.75326 l -5.0202,-7.43967 -14.3151,4.81479 c -17.652,5.93713 -27.2887,7.29338 -47.2383,6.64823 -12.5058,-0.40442 -16.6116,-0.94495 -24.0768,-3.16971 -25.154,-7.49628 -44.5145,-21.74396 -58.8905,-43.3385 -10.8845,-16.34975 -16.7801,-32.48366 -20.1433,-55.12429 -2.0479,-13.78628 -2.0441,-44.97383 0.01,-59.58707 4.9235,-35.07372 18.8999,-62.39982 40.9845,-80.13098 16.1761,-12.98745 32.7384,-19.24385 53.303,-20.13519 20.3214,-0.88079 33.8641,2.34774 47.2913,11.27411 9.3352,6.20609 15.2788,13.15831 20.4296,23.89695 5.3844,11.22542 6.5182,16.60688 6.5182,30.93795 v 11.27113 l -12.25,1.25044 c -52.6139,5.37065 -88.8261,20.18529 -98.6829,40.37177 -8.2573,16.91054 -4.9443,38.52786 8.0025,52.21721 10.6211,11.23028 21.2405,15.72954 37.4304,15.85868 18.4036,0.14679 31.0258,-4.91205 43.943,-17.61198 l 7.943,-7.80941 6.557,0.29129 6.557,0.29129 2.5755,10 2.5755,10 9.6745,0.28621 9.6745,0.28621 v -61.85999 c 0,-68.68964 -0.3078,-72.96756 -6.4311,-89.38852 -4.4637,-11.97049 -8.8636,-18.96625 -17.1374,-27.24837 -11.5603,-11.57174 -25.4341,-18.55641 -44.1196,-22.21159 -13.3291,-2.60741 -37.5386,-2.38357 -52.0748,0.48149 -27.2195,5.36491 -48.508,16.34114 -64.9593,33.49264 -22.2561,23.20333 -33.7923,51.5073 -37.3599,91.66192 -2.1926,24.67809 0.3805,57.84692 5.9937,77.26435 13.6466,47.20706 43.6742,78.11492 88.6442,91.24293 15.2131,4.44112 24.1791,5.47806 43.4442,5.02443 14.0649,-0.33118 19.561,-0.89659 28,-2.88053 z m -32.8965,-115.78857 c -8.1593,-2.58316 -16.3087,-10.20803 -18.1381,-16.97061 -1.6219,-5.9953 -0.7404,-16.47148 1.8,-21.392 7.0162,-13.59011 23.6039,-20.6329 61.9846,-26.3173 l 12.25,-1.81431 v 25.1723 25.1723 l -6.0168,4.3935 c -17.6286,12.87256 -35.5359,16.93042 -51.8797,11.75612 z m 24.596,-15.48187 c 2.6232,-0.89059 7.1389,-3.135 10.0349,-4.98758 l 5.2656,-3.36832 V 385.4597 c 0,-11.95656 -0.014,-12.0284 -2.25,-11.53825 -22.3787,4.90565 -29.5886,7.45015 -34.2126,12.0741 -6.2617,6.26166 -5.3687,16.90376 1.6751,19.96417 4.425,1.92257 13.6494,1.86924 19.487,-0.11265 z m 419.2087,55.08634 c -17.36351,-2.70647 -29.9822,-8.54462 -39.91508,-18.46708 -7.5383,-7.53039 -11.8588,-15.53297 -15.15058,-28.06246 -2.16212,-8.22965 -2.22588,-10.08266 -2.5877,-75.20801 l -0.37097,-66.77046 20.80804,0.27046 20.80804,0.27047 0.5,66 c 0.49533,65.3831 0.52084,66.05141 2.7297,71.5 3.10637,7.66251 7.34581,12.39885 14.04071,15.68644 5.48196,2.69196 6.35627,2.81356 20.22959,2.81356 14.12714,0 14.65305,-0.0772 20.4518,-3.00351 6.91977,-3.49199 11.64859,-9.06426 14.2491,-16.79062 1.58517,-4.70969 1.7821,-11.47257 2.06618,-70.95587 l 0.314,-65.75 h 20.95946 20.95946 l -0.0173,59.75 c -0.01,32.8625 -0.44939,63.8 -0.97746,68.75 -3.2344,30.31814 -16.23809,47.86712 -41.82922,56.45011 -14.30346,4.79723 -39.23229,6.32818 -57.26774,3.51697 z m -267.6588,-5.31313 c 0.2714,-1.03759 15.931,-42.6717 34.7992,-92.52024 l 34.3058,-90.63371 h 22.7876 c 20.9038,0 22.8671,0.14851 23.7491,1.79653 0.5288,0.98809 15.8071,41.37559 33.9518,89.75 18.14472,48.37441 33.46675,89.19097 34.04897,90.70347 l 1.05858,2.75 h -22.24496 -22.24499 l -6.308,-19.01239 -6.308,-19.01239 -36.1547,0.26239 -36.1547,0.26239 -6.6146,18.5 -6.6146,18.5 -21.2749,0.27024 c -20.4252,0.25945 -21.2552,0.1949 -20.7816,-1.61629 z m 115.7549,-68.90395 c 0.01,-1.48208 -23.5164,-70.22625 -24.0361,-70.23799 -0.2925,-0.007 -5.8727,15.40049 -12.4006,34.23799 -6.5278,18.8375 -12.0742,34.8125 -12.3252,35.5 -0.3573,0.9785 4.8882,1.25 24.1506,1.25 13.5338,0 24.6089,-0.3375 24.6113,-0.75 z m 291.99565,-21.83607 v -92.58608 l 55.75,0.44419 c 61.87816,0.493 63.54394,0.64852 76.79816,7.16986 14.22625,6.99961 25.12409,22.32463 27.54129,38.72978 1.37133,9.30701 -0.34594,19.50537 -4.93619,29.31451 -4.02016,8.59088 -9.07468,13.83587 -17.29796,17.94981 l -6.94812,3.476 3.79641,1.96649 c 9.21707,4.77432 13.90864,9.904 17.43953,19.0681 1.86346,4.83645 2.23133,8.52276 2.84946,28.55341 0.763,24.72578 1.3686,27.80421 6.37854,32.42431 1.44588,1.33338 2.62888,3.24588 2.62888,4.25 0,1.71424 -1.39285,1.82569 -22.81716,1.82569 h -22.81715 l -1.81397,-7.69444 c -1.1979,-5.08122 -2.07522,-14.33597 -2.5832,-27.25 -0.98888,-25.13962 -2.73568,-30.2039 -11.87637,-34.43162 -4.28474,-1.98176 -6.51676,-2.14527 -33.34215,-2.44259 l -28.75,-0.31866 v 36.06866 36.06865 h -20 -20 z m 102.5009,-11.95618 c 11.67226,-3.04024 16.85415,-10.13342 16.77472,-22.96193 -0.092,-14.8649 -6.74352,-22.27055 -21.98151,-24.47383 -3.73676,-0.54031 -18.15661,-0.99129 -32.04411,-1.00218 l -25.25,-0.0198 v 25 25 h 28.2899 c 22.26486,0 29.55095,-0.32846 34.211,-1.54225 z m 80.76044,102.65088 c 0.27786,-1.06252 15.93738,-42.69663 34.79894,-92.52024 l 34.29372,-90.58839 h 22.7878 c 20.6821,0 22.8737,0.16171 23.7169,1.75 0.511,0.9625 15.7916,41.35 33.9569,89.75 18.1653,48.4 33.5019,89.2375 34.0813,90.75 l 1.0536,2.75 h -22.245 -22.2449 l -6.308,-19.01239 -6.308,-19.01239 -36.1547,0.26239 -36.1547,0.26239 -6.61464,18.5 -6.6146,18.5 -21.2749,0.27024 c -20.59989,0.26167 -21.25888,0.20895 -20.76972,-1.66161 z m 115.73866,-68.84799 c 0,-1.50873 -23.5203,-70.23632 -24.0407,-70.24825 -0.2974,-0.007 -5.879,15.40011 -12.4034,34.23761 -6.5245,18.8375 -12.0668,34.8125 -12.3163,35.5 -0.355,0.97842 4.8926,1.25 24.1534,1.25 13.5339,0 24.607,-0.33271 24.607,-0.73936 z"
       id="path1-8" />
  </g>
</svg>
